<svg xmlns="http://www.w3.org/2000/svg" version="1.1" xmlns:xlink="http://www.w3.org/1999/xlink" xmlns:svgjs="http://svgjs.com/svgjs" width="1440" height="560" preserveAspectRatio="none" viewBox="0 0 1440 560"><g mask="url(&quot;#SvgjsMask1000&quot;)" fill="none"><rect width="1440" height="560" x="0" y="0" fill="#0e2a47"></rect><path d="M0,719.382C134.664,747.376,271.597,677.015,386.831,601.92C501.592,527.134,614.405,428.936,649.054,296.413C682.347,169.076,600.83,45.476,565.464,-81.301C535.074,-190.24,535.54,-314.71,456.113,-395.224C378.033,-474.373,250.034,-459.992,148.1,-504.381C26.37,-557.39,-68.612,-700.471,-199.934,-680.912C-329.478,-661.618,-408.44,-524.386,-474.987,-411.579C-533.979,-311.58,-531.761,-193.575,-554.581,-79.737C-578.976,41.959,-667.355,168.347,-613.674,280.255C-559.918,392.321,-396.733,387.718,-295.654,460.047C-186.841,537.91,-131.001,692.15,0,719.382" fill="#0b2239"></path><path d="M1440 948.909C1516.913 941.5360000000001 1592.517 938.452 1663.287 907.441 1743.853 872.1379999999999 1831.036 834.8910000000001 1874.595 758.473 1919.34 679.974 1917.337 582.479 1898.946 494.014 1881.232 408.80600000000004 1840.429 326.582 1773.296 271.197 1710.72 219.572 1624.257 219.805 1545.093 202.08499999999998 1471.555 185.62400000000002 1400.946 165.54199999999997 1325.788 171.02800000000002 1235.2350000000001 177.637 1132.902 174.30399999999997 1067.1970000000001 236.96499999999997 1000.672 300.408 990.402 402.935 986.321 494.771 982.506 580.616 1010.2950000000001 661.784 1044.82 740.473 1079.81 820.222 1110.3690000000001 912.428 1187.398 953.057 1263.424 993.1569999999999 1354.439 957.11 1440 948.909" fill="#113255"></path></g><defs><mask id="SvgjsMask1000"><rect width="1440" height="560" fill="#ffffff"></rect></mask></defs></svg>